# .pcd test file generated for point-cloud-annotator
VERSION .7
FIELDS x y z
SIZE 4 4 4
TYPE F F F
COUNT 1 1 1
WIDTH 2624
HEIGHT 1
VIEWPOINT 0 0 0 1 0 0 0
POINTS 2624
DATA ascii
-20.00 -20.00 0.00
-20.00 -19.00 0.00
-20.00 -18.00 0.00
-20.00 -17.00 0.00
-20.00 -16.00 0.00
-20.00 -15.00 0.00
-20.00 -14.00 0.00
-20.00 -13.00 0.00
-20.00 -12.00 0.00
-20.00 -11.00 0.00
-20.00 -10.00 0.00
-20.00 -9.00 0.00
-20.00 -8.00 0.00
-20.00 -7.00 0.00
-20.00 -6.00 0.00
-20.00 -5.00 0.00
-20.00 -4.00 0.00
-20.00 -3.00 0.00
-20.00 -2.00 0.00
-20.00 -1.00 0.00
-20.00 0.00 0.00
-20.00 1.00 0.00
-20.00 2.00 0.00
-20.00 3.00 0.00
-20.00 4.00 0.00
-20.00 5.00 0.00
-20.00 6.00 0.00
-20.00 7.00 0.00
-20.00 8.00 0.00
-20.00 9.00 0.00
-20.00 10.00 0.00
-20.00 11.00 0.00
-20.00 12.00 0.00
-20.00 13.00 0.00
-20.00 14.00 0.00
-20.00 15.00 0.00
-20.00 16.00 0.00
-20.00 17.00 0.00
-20.00 18.00 0.00
-20.00 19.00 0.00
-19.00 -20.00 0.09
-19.00 -19.00 0.08
-19.00 -18.00 0.07
-19.00 -17.00 0.06
-19.00 -16.00 0.03
-19.00 -15.00 0.01
-19.00 -14.00 -0.02
-19.00 -13.00 -0.04
-19.00 -12.00 -0.07
-19.00 -11.00 -0.08
-19.00 -10.00 -0.09
-19.00 -9.00 -0.09
-19.00 -8.00 -0.08
-19.00 -7.00 -0.06
-19.00 -6.00 -0.04
-19.00 -5.00 -0.02
-19.00 -4.00 0.01
-19.00 -3.00 0.03
-19.00 -2.00 0.06
-19.00 -1.00 0.07
-19.00 0.00 0.09
-19.00 1.00 0.09
-19.00 2.00 0.08
-19.00 3.00 0.07
-19.00 4.00 0.05
-19.00 5.00 0.03
-19.00 6.00 0.00
-19.00 7.00 -0.02
-19.00 8.00 -0.05
-19.00 9.00 -0.07
-19.00 10.00 -0.08
-19.00 11.00 -0.09
-19.00 12.00 -0.09
-19.00 13.00 -0.08
-19.00 14.00 -0.06
-19.00 15.00 -0.04
-19.00 16.00 -0.02
-19.00 17.00 0.01
-19.00 18.00 0.03
-19.00 19.00 0.06
-18.00 -20.00 0.17
-18.00 -19.00 0.16
-18.00 -18.00 0.14
-18.00 -17.00 0.11
-18.00 -16.00 0.06
-18.00 -15.00 0.01
-18.00 -14.00 -0.04
-18.00 -13.00 -0.09
-18.00 -12.00 -0.12
-18.00 -11.00 -0.15
-18.00 -10.00 -0.17
-18.00 -9.00 -0.17
-18.00 -8.00 -0.15
-18.00 -7.00 -0.12
-18.00 -6.00 -0.08
-18.00 -5.00 -0.04
-18.00 -4.00 0.01
-18.00 -3.00 0.06
-18.00 -2.00 0.11
-18.00 -1.00 0.14
-18.00 0.00 0.16
-18.00 1.00 0.17
-18.00 2.00 0.16
-18.00 3.00 0.14
-18.00 4.00 0.10
-18.00 5.00 0.06
-18.00 6.00 0.01
-18.00 7.00 -0.04
-18.00 8.00 -0.09
-18.00 9.00 -0.13
-18.00 10.00 -0.15
-18.00 11.00 -0.17
-18.00 12.00 -0.17
-18.00 13.00 -0.15
-18.00 14.00 -0.12
-18.00 15.00 -0.08
-18.00 16.00 -0.03
-18.00 17.00 0.02
-18.00 18.00 0.07
-18.00 19.00 0.11
-17.00 -20.00 0.23
-17.00 -19.00 0.22
-17.00 -18.00 0.19
-17.00 -17.00 0.15
-17.00 -16.00 0.09
-17.00 -15.00 0.02
-17.00 -14.00 -0.05
-17.00 -13.00 -0.12
-17.00 -12.00 -0.17
-17.00 -11.00 -0.21
-17.00 -10.00 -0.23
-17.00 -9.00 -0.23
-17.00 -8.00 -0.21
-17.00 -7.00 -0.17
-17.00 -6.00 -0.12
-17.00 -5.00 -0.05
-17.00 -4.00 0.02
-17.00 -3.00 0.09
-17.00 -2.00 0.15
-17.00 -1.00 0.20
-17.00 0.00 0.23
-17.00 1.00 0.23
-17.00 2.00 0.22
-17.00 3.00 0.19
-17.00 4.00 0.14
-17.00 5.00 0.08
-17.00 6.00 0.01
-17.00 7.00 -0.06
-17.00 8.00 -0.12
-17.00 9.00 -0.18
-17.00 10.00 -0.21
-17.00 11.00 -0.23
-17.00 12.00 -0.23
-17.00 13.00 -0.21
-17.00 14.00 -0.17
-17.00 15.00 -0.11
-17.00 16.00 -0.05
-17.00 17.00 0.02
-17.00 18.00 0.09
-17.00 19.00 0.15
-16.00 -20.00 0.28
-16.00 -19.00 0.27
-16.00 -18.00 0.23
-16.00 -17.00 0.17
-16.00 -16.00 0.10
-16.00 -15.00 0.02
-16.00 -14.00 -0.06
-16.00 -13.00 -0.14
-16.00 -12.00 -0.21
-16.00 -11.00 -0.25
-16.00 -10.00 -0.28
-16.00 -9.00 -0.28
-16.00 -8.00 -0.25
-16.00 -7.00 -0.20
-16.00 -6.00 -0.14
-16.00 -5.00 -0.06
-16.00 -4.00 0.02
-16.00 -3.00 0.11
-16.00 -2.00 0.18
-16.00 -1.00 0.23
-16.00 0.00 0.27
-16.00 1.00 0.28
-16.00 2.00 0.27
-16.00 3.00 0.23
-16.00 4.00 0.17
-16.00 5.00 0.10
-16.00 6.00 0.02
-16.00 7.00 -0.07
-16.00 8.00 -0.15
-16.00 9.00 -0.21
-16.00 10.00 -0.25
-16.00 11.00 -0.28
-16.00 12.00 -0.28
-16.00 13.00 -0.25
-16.00 14.00 -0.20
-16.00 15.00 -0.13
-16.00 16.00 -0.05
-16.00 17.00 0.03
-16.00 18.00 0.11
-16.00 19.00 0.18
-15.00 -20.00 0.30
-15.00 -19.00 0.29
-15.00 -18.00 0.25
-15.00 -17.00 0.19
-15.00 -16.00 0.11
-15.00 -15.00 0.02
-15.00 -14.00 -0.07
-15.00 -13.00 -0.15
-15.00 -12.00 -0.22
-15.00 -11.00 -0.27
-15.00 -10.00 -0.30
-15.00 -9.00 -0.30
-15.00 -8.00 -0.27
-15.00 -7.00 -0.22
-15.00 -6.00 -0.15
-15.00 -5.00 -0.06
-15.00 -4.00 0.03
-15.00 -3.00 0.11
-15.00 -2.00 0.19
-15.00 -1.00 0.25
-15.00 0.00 0.29
-15.00 1.00 0.30
-15.00 2.00 0.28
-15.00 3.00 0.24
-15.00 4.00 0.18
-15.00 5.00 0.10
-15.00 6.00 0.02
-15.00 7.00 -0.07
-15.00 8.00 -0.16
-15.00 9.00 -0.22
-15.00 10.00 -0.27
-15.00 11.00 -0.30
-15.00 12.00 -0.29
-15.00 13.00 -0.27
-15.00 14.00 -0.21
-15.00 15.00 -0.14
-15.00 16.00 -0.06
-15.00 17.00 0.03
-15.00 18.00 0.12
-15.00 19.00 0.19
-14.00 -20.00 0.29
-14.00 -19.00 0.28
-14.00 -18.00 0.24
-14.00 -17.00 0.18
-14.00 -16.00 0.11
-14.00 -15.00 0.02
-14.00 -14.00 -0.07
-14.00 -13.00 -0.15
-14.00 -12.00 -0.22
-14.00 -11.00 -0.26
-14.00 -10.00 -0.29
-14.00 -9.00 -0.29
-14.00 -8.00 -0.26
-14.00 -7.00 -0.21
-14.00 -6.00 -0.14
-14.00 -5.00 -0.06
-14.00 -4.00 0.03
-14.00 -3.00 0.11
-14.00 -2.00 0.19
-14.00 -1.00 0.24
-14.00 0.00 0.28
-14.00 1.00 0.29
-14.00 2.00 0.28
-14.00 3.00 0.24
-14.00 4.00 0.18
-14.00 5.00 0.10
-14.00 6.00 0.02
-14.00 7.00 -0.07
-14.00 8.00 -0.15
-14.00 9.00 -0.22
-14.00 10.00 -0.27
-14.00 11.00 -0.29
-14.00 12.00 -0.29
-14.00 13.00 -0.26
-14.00 14.00 -0.21
-14.00 15.00 -0.14
-14.00 16.00 -0.06
-14.00 17.00 0.03
-14.00 18.00 0.11
-14.00 19.00 0.19
-13.00 -20.00 0.26
-13.00 -19.00 0.25
-13.00 -18.00 0.21
-13.00 -17.00 0.16
-13.00 -16.00 0.09
-13.00 -15.00 0.02
-13.00 -14.00 -0.06
-13.00 -13.00 -0.13
-13.00 -12.00 -0.19
-13.00 -11.00 -0.23
-13.00 -10.00 -0.26
-13.00 -9.00 -0.26
-13.00 -8.00 -0.23
-13.00 -7.00 -0.19
-13.00 -6.00 -0.13
-13.00 -5.00 -0.05
-13.00 -4.00 0.02
-13.00 -3.00 0.10
-13.00 -2.00 0.16
-13.00 -1.00 0.22
-13.00 0.00 0.25
-13.00 1.00 0.26
-13.00 2.00 0.25
-13.00 3.00 0.21
-13.00 4.00 0.16
-13.00 5.00 0.09
-13.00 6.00 0.01
-13.00 7.00 -0.06
-13.00 8.00 -0.13
-13.00 9.00 -0.19
-13.00 10.00 -0.24
-13.00 11.00 -0.26
-13.00 12.00 -0.25
-13.00 13.00 -0.23
-13.00 14.00 -0.18
-13.00 15.00 -0.12
-13.00 16.00 -0.05
-13.00 17.00 0.03
-13.00 18.00 0.10
-13.00 19.00 0.17
-12.00 -20.00 0.20
-12.00 -19.00 0.19
-12.00 -18.00 0.17
-12.00 -17.00 0.13
-12.00 -16.00 0.07
-12.00 -15.00 0.01
-12.00 -14.00 -0.05
-12.00 -13.00 -0.10
-12.00 -12.00 -0.15
-12.00 -11.00 -0.18
-12.00 -10.00 -0.20
-12.00 -9.00 -0.20
-12.00 -8.00 -0.18
-12.00 -7.00 -0.15
-12.00 -6.00 -0.10
-12.00 -5.00 -0.04
-12.00 -4.00 0.02
-12.00 -3.00 0.08
-12.00 -2.00 0.13
-12.00 -1.00 0.17
-12.00 0.00 0.19
-12.00 1.00 0.20
-12.00 2.00 0.19
-12.00 3.00 0.17
-12.00 4.00 0.12
-12.00 5.00 0.07
-12.00 6.00 0.01
-12.00 7.00 -0.05
-12.00 8.00 -0.11
-12.00 9.00 -0.15
-12.00 10.00 -0.18
-12.00 11.00 -0.20
-12.00 12.00 -0.20
-12.00 13.00 -0.18
-12.00 14.00 -0.14
-12.00 15.00 -0.10
-12.00 16.00 -0.04
-12.00 17.00 0.02
-12.00 18.00 0.08
-12.00 19.00 0.13
-11.00 -20.00 0.13
-11.00 -19.00 0.12
-11.00 -18.00 0.11
-11.00 -17.00 0.08
-11.00 -16.00 0.05
-11.00 -15.00 0.01
-11.00 -14.00 -0.03
-11.00 -13.00 -0.06
-11.00 -12.00 -0.09
-11.00 -11.00 -0.12
-11.00 -10.00 -0.13
-11.00 -9.00 -0.13
-11.00 -8.00 -0.11
-11.00 -7.00 -0.09
-11.00 -6.00 -0.06
-11.00 -5.00 -0.03
-11.00 -4.00 0.01
-11.00 -3.00 0.05
-11.00 -2.00 0.08
-11.00 -1.00 0.11
-11.00 0.00 0.12
-11.00 1.00 0.13
-11.00 2.00 0.12
-11.00 3.00 0.10
-11.00 4.00 0.08
-11.00 5.00 0.04
-11.00 6.00 0.01
-11.00 7.00 -0.03
-11.00 8.00 -0.07
-11.00 9.00 -0.10
-11.00 10.00 -0.12
-11.00 11.00 -0.13
-11.00 12.00 -0.13
-11.00 13.00 -0.11
-11.00 14.00 -0.09
-11.00 15.00 -0.06
-11.00 16.00 -0.02
-11.00 17.00 0.01
-11.00 18.00 0.05
-11.00 19.00 0.08
-10.00 -20.00 0.04
-10.00 -19.00 0.04
-10.00 -18.00 0.03
-10.00 -17.00 0.03
-10.00 -16.00 0.02
-10.00 -15.00 0.00
-10.00 -14.00 -0.01
-10.00 -13.00 -0.02
-10.00 -12.00 -0.03
-10.00 -11.00 -0.04
-10.00 -10.00 -0.04
-10.00 -9.00 -0.04
-10.00 -8.00 -0.04
-10.00 -7.00 -0.03
-10.00 -6.00 -0.02
-10.00 -5.00 -0.01
-10.00 -4.00 0.00
-10.00 -3.00 0.02
-10.00 -2.00 0.03
-10.00 -1.00 0.04
-10.00 0.00 0.04
-10.00 1.00 0.04
-10.00 2.00 0.04
-10.00 3.00 0.03
-10.00 4.00 0.03
-10.00 5.00 0.01
-10.00 6.00 0.00
-10.00 7.00 -0.01
-10.00 8.00 -0.02
-10.00 9.00 -0.03
-10.00 10.00 -0.04
-10.00 11.00 -0.04
-10.00 12.00 -0.04
-10.00 13.00 -0.04
-10.00 14.00 -0.03
-10.00 15.00 -0.02
-10.00 16.00 -0.01
-10.00 17.00 0.00
-10.00 18.00 0.02
-10.00 19.00 0.03
-9.00 -20.00 -0.05
-9.00 -19.00 -0.05
-9.00 -18.00 -0.04
-9.00 -17.00 -0.03
-9.00 -16.00 -0.02
-9.00 -15.00 -0.00
-9.00 -14.00 0.01
-9.00 -13.00 0.02
-9.00 -12.00 0.03
-9.00 -11.00 0.04
-9.00 -10.00 0.05
-9.00 -9.00 0.05
-9.00 -8.00 0.04
-9.00 -7.00 0.03
-9.00 -6.00 0.02
-9.00 -5.00 0.01
-9.00 -4.00 -0.00
-9.00 -3.00 -0.02
-9.00 -2.00 -0.03
-9.00 -1.00 -0.04
-9.00 0.00 -0.05
-9.00 1.00 -0.05
-9.00 2.00 -0.04
-9.00 3.00 -0.04
-9.00 4.00 -0.03
-9.00 5.00 -0.02
-9.00 6.00 -0.00
-9.00 7.00 0.01
-9.00 8.00 0.02
-9.00 9.00 0.04
-9.00 10.00 0.04
-9.00 11.00 0.05
-9.00 12.00 0.05
-9.00 13.00 0.04
-9.00 14.00 0.03
-9.00 15.00 0.02
-9.00 16.00 0.01
-9.00 17.00 -0.00
-9.00 18.00 -0.02
-9.00 19.00 -0.03
-8.00 -20.00 -0.13
-8.00 -19.00 -0.13
-8.00 -18.00 -0.11
-8.00 -17.00 -0.08
-8.00 -16.00 -0.05
-8.00 -15.00 -0.01
-8.00 -14.00 0.03
-8.00 -13.00 0.07
-8.00 -12.00 0.10
-8.00 -11.00 0.12
-8.00 -10.00 0.13
-8.00 -9.00 0.13
-8.00 -8.00 0.12
-8.00 -7.00 0.10
-8.00 -6.00 0.07
-8.00 -5.00 0.03
-8.00 -4.00 -0.01
-8.00 -3.00 -0.05
-8.00 -2.00 -0.08
-8.00 -1.00 -0.11
-8.00 0.00 -0.13
-8.00 1.00 -0.13
-8.00 2.00 -0.13
-8.00 3.00 -0.11
-8.00 4.00 -0.08
-8.00 5.00 -0.05
-8.00 6.00 -0.01
-8.00 7.00 0.03
-8.00 8.00 0.07
-8.00 9.00 0.10
-8.00 10.00 0.12
-8.00 11.00 0.13
-8.00 12.00 0.13
-8.00 13.00 0.12
-8.00 14.00 0.09
-8.00 15.00 0.06
-8.00 16.00 0.03
-8.00 17.00 -0.01
-8.00 18.00 -0.05
-8.00 19.00 -0.09
-7.00 -20.00 -0.21
-7.00 -19.00 -0.20
-7.00 -18.00 -0.17
-7.00 -17.00 -0.13
-7.00 -16.00 -0.07
-7.00 -15.00 -0.01
-7.00 -14.00 0.05
-7.00 -13.00 0.10
-7.00 -12.00 0.15
-7.00 -11.00 0.19
-7.00 -10.00 0.20
-7.00 -9.00 0.20
-7.00 -8.00 0.19
-7.00 -7.00 0.15
-7.00 -6.00 0.10
-7.00 -5.00 0.04
-7.00 -4.00 -0.02
-7.00 -3.00 -0.08
-7.00 -2.00 -0.13
-7.00 -1.00 -0.17
-7.00 0.00 -0.20
-7.00 1.00 -0.21
-7.00 2.00 -0.20
-7.00 3.00 -0.17
-7.00 4.00 -0.13
-7.00 5.00 -0.07
-7.00 6.00 -0.01
-7.00 7.00 0.05
-7.00 8.00 0.11
-7.00 9.00 0.15
-7.00 10.00 0.19
-7.00 11.00 0.20
-7.00 12.00 0.20
-7.00 13.00 0.18
-7.00 14.00 0.15
-7.00 15.00 0.10
-7.00 16.00 0.04
-7.00 17.00 -0.02
-7.00 18.00 -0.08
-7.00 19.00 -0.13
-6.00 -20.00 -0.26
-6.00 -19.00 -0.25
-6.00 -18.00 -0.22
-6.00 -17.00 -0.16
-6.00 -16.00 -0.09
-6.00 -15.00 -0.02
-6.00 -14.00 0.06
-6.00 -13.00 0.13
-6.00 -12.00 0.19
-6.00 -11.00 0.24
-6.00 -10.00 0.26
-6.00 -9.00 0.26
-6.00 -8.00 0.23
-6.00 -7.00 0.19
-6.00 -6.00 0.13
-6.00 -5.00 0.06
-6.00 -4.00 -0.02
-6.00 -3.00 -0.10
-6.00 -2.00 -0.17
-6.00 -1.00 -0.22
-6.00 0.00 -0.25
-6.00 1.00 -0.26
-6.00 2.00 -0.25
-6.00 3.00 -0.21
-6.00 4.00 -0.16
-6.00 5.00 -0.09
-6.00 6.00 -0.01
-6.00 7.00 0.06
-6.00 8.00 0.14
-6.00 9.00 0.20
-6.00 10.00 0.24
-6.00 11.00 0.26
-6.00 12.00 0.26
-6.00 13.00 0.23
-6.00 14.00 0.19
-6.00 15.00 0.12
-6.00 16.00 0.05
-6.00 17.00 -0.03
-6.00 18.00 -0.10
-6.00 19.00 -0.17
-5.00 -20.00 -0.29
-5.00 -19.00 -0.28
-5.00 -18.00 -0.24
-5.00 -17.00 -0.18
-5.00 -16.00 -0.11
-5.00 -15.00 -0.02
-5.00 -14.00 0.07
-5.00 -13.00 0.15
-5.00 -12.00 0.22
-5.00 -11.00 0.27
-5.00 -10.00 0.29
-5.00 -9.00 0.29
-5.00 -8.00 0.26
-5.00 -7.00 0.21
-5.00 -6.00 0.14
-5.00 -5.00 0.06
-5.00 -4.00 -0.03
-5.00 -3.00 -0.11
-5.00 -2.00 -0.19
-5.00 -1.00 -0.24
-5.00 0.00 -0.28
-5.00 1.00 -0.29
-5.00 2.00 -0.28
-5.00 3.00 -0.24
-5.00 4.00 -0.18
-5.00 5.00 -0.10
-5.00 6.00 -0.02
-5.00 7.00 0.07
-5.00 8.00 0.15
-5.00 9.00 0.22
-5.00 10.00 0.27
-5.00 11.00 0.29
-5.00 12.00 0.29
-5.00 13.00 0.26
-5.00 14.00 0.21
-5.00 15.00 0.14
-5.00 16.00 0.06
-5.00 17.00 -0.03
-5.00 18.00 -0.12
-5.00 19.00 -0.19
-4.00 -20.00 -0.30
-4.00 -19.00 -0.29
-4.00 -18.00 -0.25
-4.00 -17.00 -0.19
-4.00 -16.00 -0.11
-4.00 -15.00 -0.02
-4.00 -14.00 0.07
-4.00 -13.00 0.15
-4.00 -12.00 0.22
-4.00 -11.00 0.27
-4.00 -10.00 0.30
-4.00 -9.00 0.30
-4.00 -8.00 0.27
-4.00 -7.00 0.22
-4.00 -6.00 0.15
-4.00 -5.00 0.06
-4.00 -4.00 -0.03
-4.00 -3.00 -0.11
-4.00 -2.00 -0.19
-4.00 -1.00 -0.25
-4.00 0.00 -0.29
-4.00 1.00 -0.30
-4.00 2.00 -0.28
-4.00 3.00 -0.24
-4.00 4.00 -0.18
-4.00 5.00 -0.10
-4.00 6.00 -0.02
-4.00 7.00 0.07
-4.00 8.00 0.16
-4.00 9.00 0.22
-4.00 10.00 0.27
-4.00 11.00 0.30
-4.00 12.00 0.29
-4.00 13.00 0.27
-4.00 14.00 0.21
-4.00 15.00 0.14
-4.00 16.00 0.06
-4.00 17.00 -0.03
-4.00 18.00 -0.12
-4.00 19.00 -0.19
-3.00 -20.00 -0.28
-3.00 -19.00 -0.27
-3.00 -18.00 -0.23
-3.00 -17.00 -0.17
-3.00 -16.00 -0.10
-3.00 -15.00 -0.02
-3.00 -14.00 0.06
-3.00 -13.00 0.14
-3.00 -12.00 0.20
-3.00 -11.00 0.25
-3.00 -10.00 0.27
-3.00 -9.00 0.27
-3.00 -8.00 0.25
-3.00 -7.00 0.20
-3.00 -6.00 0.14
-3.00 -5.00 0.06
-3.00 -4.00 -0.02
-3.00 -3.00 -0.10
-3.00 -2.00 -0.18
-3.00 -1.00 -0.23
-3.00 0.00 -0.27
-3.00 1.00 -0.28
-3.00 2.00 -0.26
-3.00 3.00 -0.23
-3.00 4.00 -0.17
-3.00 5.00 -0.10
-3.00 6.00 -0.01
-3.00 7.00 0.07
-3.00 8.00 0.14
-3.00 9.00 0.21
-3.00 10.00 0.25
-3.00 11.00 0.28
-3.00 12.00 0.27
-3.00 13.00 0.25
-3.00 14.00 0.20
-3.00 15.00 0.13
-3.00 16.00 0.05
-3.00 17.00 -0.03
-3.00 18.00 -0.11
-3.00 19.00 -0.18
-2.00 -20.00 -0.23
-2.00 -19.00 -0.22
-2.00 -18.00 -0.19
-2.00 -17.00 -0.14
-2.00 -16.00 -0.08
-2.00 -15.00 -0.02
-2.00 -14.00 0.05
-2.00 -13.00 0.12
-2.00 -12.00 0.17
-2.00 -11.00 0.21
-2.00 -10.00 0.23
-2.00 -9.00 0.23
-2.00 -8.00 0.21
-2.00 -7.00 0.17
-2.00 -6.00 0.11
-2.00 -5.00 0.05
-2.00 -4.00 -0.02
-2.00 -3.00 -0.09
-2.00 -2.00 -0.15
-2.00 -1.00 -0.19
-2.00 0.00 -0.22
-2.00 1.00 -0.23
-2.00 2.00 -0.22
-2.00 3.00 -0.19
-2.00 4.00 -0.14
-2.00 5.00 -0.08
-2.00 6.00 -0.01
-2.00 7.00 0.06
-2.00 8.00 0.12
-2.00 9.00 0.17
-2.00 10.00 0.21
-2.00 11.00 0.23
-2.00 12.00 0.23
-2.00 13.00 0.21
-2.00 14.00 0.17
-2.00 15.00 0.11
-2.00 16.00 0.05
-2.00 17.00 -0.02
-2.00 18.00 -0.09
-2.00 19.00 -0.15
-1.00 -20.00 -0.17
-1.00 -19.00 -0.16
-1.00 -18.00 -0.14
-1.00 -17.00 -0.10
-1.00 -16.00 -0.06
-1.00 -15.00 -0.01
-1.00 -14.00 0.04
-1.00 -13.00 0.08
-1.00 -12.00 0.12
-1.00 -11.00 0.15
-1.00 -10.00 0.16
-1.00 -9.00 0.16
-1.00 -8.00 0.15
-1.00 -7.00 0.12
-1.00 -6.00 0.08
-1.00 -5.00 0.03
-1.00 -4.00 -0.01
-1.00 -3.00 -0.06
-1.00 -2.00 -0.10
-1.00 -1.00 -0.14
-1.00 0.00 -0.16
-1.00 1.00 -0.17
-1.00 2.00 -0.16
-1.00 3.00 -0.13
-1.00 4.00 -0.10
-1.00 5.00 -0.06
-1.00 6.00 -0.01
-1.00 7.00 0.04
-1.00 8.00 0.09
-1.00 9.00 0.12
-1.00 10.00 0.15
-1.00 11.00 0.16
-1.00 12.00 0.16
-1.00 13.00 0.15
-1.00 14.00 0.12
-1.00 15.00 0.08
-1.00 16.00 0.03
-1.00 17.00 -0.02
-1.00 18.00 -0.07
-1.00 19.00 -0.11
0.00 -20.00 -0.08
0.00 -19.00 -0.08
0.00 -18.00 -0.07
0.00 -17.00 -0.05
0.00 -16.00 -0.03
0.00 -15.00 -0.01
0.00 -14.00 0.02
0.00 -13.00 0.04
0.00 -12.00 0.06
0.00 -11.00 0.08
0.00 -10.00 0.08
0.00 -9.00 0.08
0.00 -8.00 0.08
0.00 -7.00 0.06
0.00 -6.00 0.04
0.00 -5.00 0.02
0.00 -4.00 -0.01
0.00 -3.00 -0.03
0.00 -2.00 -0.05
0.00 -1.00 -0.07
0.00 0.00 -0.08
0.00 1.00 -0.08
0.00 2.00 -0.08
0.00 3.00 -0.07
0.00 4.00 -0.05
0.00 5.00 -0.03
0.00 6.00 -0.00
0.00 7.00 0.02
0.00 8.00 0.04
0.00 9.00 0.06
0.00 10.00 0.08
0.00 11.00 0.08
0.00 12.00 0.08
0.00 13.00 0.07
0.00 14.00 0.06
0.00 15.00 0.04
0.00 16.00 0.02
0.00 17.00 -0.01
0.00 18.00 -0.03
0.00 19.00 -0.05
1.00 -20.00 0.01
1.00 -19.00 0.00
1.00 -18.00 0.00
1.00 -17.00 0.00
1.00 -16.00 0.00
1.00 -15.00 0.00
1.00 -14.00 -0.00
1.00 -13.00 -0.00
1.00 -12.00 -0.00
1.00 -11.00 -0.00
1.00 -10.00 -0.00
1.00 -9.00 -0.00
1.00 -8.00 -0.00
1.00 -7.00 -0.00
1.00 -6.00 -0.00
1.00 -5.00 -0.00
1.00 -4.00 0.00
1.00 -3.00 0.00
1.00 -2.00 0.00
1.00 -1.00 0.00
1.00 0.00 0.00
1.00 1.00 0.01
1.00 2.00 0.00
1.00 3.00 0.00
1.00 4.00 0.00
1.00 5.00 0.00
1.00 6.00 0.00
1.00 7.00 -0.00
1.00 8.00 -0.00
1.00 9.00 -0.00
1.00 10.00 -0.00
1.00 11.00 -0.01
1.00 12.00 -0.00
1.00 13.00 -0.00
1.00 14.00 -0.00
1.00 15.00 -0.00
1.00 16.00 -0.00
1.00 17.00 0.00
1.00 18.00 0.00
1.00 19.00 0.00
2.00 -20.00 0.09
2.00 -19.00 0.09
2.00 -18.00 0.08
2.00 -17.00 0.06
2.00 -16.00 0.03
2.00 -15.00 0.01
2.00 -14.00 -0.02
2.00 -13.00 -0.05
2.00 -12.00 -0.07
2.00 -11.00 -0.08
2.00 -10.00 -0.09
2.00 -9.00 -0.09
2.00 -8.00 -0.08
2.00 -7.00 -0.07
2.00 -6.00 -0.05
2.00 -5.00 -0.02
2.00 -4.00 0.01
2.00 -3.00 0.04
2.00 -2.00 0.06
2.00 -1.00 0.08
2.00 0.00 0.09
2.00 1.00 0.09
2.00 2.00 0.09
2.00 3.00 0.08
2.00 4.00 0.06
2.00 5.00 0.03
2.00 6.00 0.01
2.00 7.00 -0.02
2.00 8.00 -0.05
2.00 9.00 -0.07
2.00 10.00 -0.09
2.00 11.00 -0.09
2.00 12.00 -0.09
2.00 13.00 -0.08
2.00 14.00 -0.07
2.00 15.00 -0.04
2.00 16.00 -0.02
2.00 17.00 0.01
2.00 18.00 0.04
2.00 19.00 0.06
3.00 -20.00 0.17
3.00 -19.00 0.17
3.00 -18.00 0.14
3.00 -17.00 0.11
3.00 -16.00 0.06
3.00 -15.00 0.01
3.00 -14.00 -0.04
3.00 -13.00 -0.09
3.00 -12.00 -0.13
3.00 -11.00 -0.16
3.00 -10.00 -0.17
3.00 -9.00 -0.17
3.00 -8.00 -0.16
3.00 -7.00 -0.13
3.00 -6.00 -0.09
3.00 -5.00 -0.04
3.00 -4.00 0.02
3.00 -3.00 0.07
3.00 -2.00 0.11
3.00 -1.00 0.14
3.00 0.00 0.17
3.00 1.00 0.17
3.00 2.00 0.16
3.00 3.00 0.14
3.00 4.00 0.11
3.00 5.00 0.06
3.00 6.00 0.01
3.00 7.00 -0.04
3.00 8.00 -0.09
3.00 9.00 -0.13
3.00 10.00 -0.16
3.00 11.00 -0.17
3.00 12.00 -0.17
3.00 13.00 -0.15
3.00 14.00 -0.12
3.00 15.00 -0.08
3.00 16.00 -0.03
3.00 17.00 0.02
3.00 18.00 0.07
3.00 19.00 0.11
4.00 -20.00 0.24
4.00 -19.00 0.23
4.00 -18.00 0.20
4.00 -17.00 0.15
4.00 -16.00 0.09
4.00 -15.00 0.02
4.00 -14.00 -0.05
4.00 -13.00 -0.12
4.00 -12.00 -0.18
4.00 -11.00 -0.22
4.00 -10.00 -0.24
4.00 -9.00 -0.24
4.00 -8.00 -0.21
4.00 -7.00 -0.17
4.00 -6.00 -0.12
4.00 -5.00 -0.05
4.00 -4.00 0.02
4.00 -3.00 0.09
4.00 -2.00 0.15
4.00 -1.00 0.20
4.00 0.00 0.23
4.00 1.00 0.24
4.00 2.00 0.23
4.00 3.00 0.19
4.00 4.00 0.14
4.00 5.00 0.08
4.00 6.00 0.01
4.00 7.00 -0.06
4.00 8.00 -0.12
4.00 9.00 -0.18
4.00 10.00 -0.22
4.00 11.00 -0.24
4.00 12.00 -0.23
4.00 13.00 -0.21
4.00 14.00 -0.17
4.00 15.00 -0.11
4.00 16.00 -0.05
4.00 17.00 0.02
4.00 18.00 0.09
4.00 19.00 0.15
5.00 -20.00 0.28
5.00 -19.00 0.27
5.00 -18.00 0.23
5.00 -17.00 0.17
5.00 -16.00 0.10
5.00 -15.00 0.02
5.00 -14.00 -0.06
5.00 -13.00 -0.14
5.00 -12.00 -0.21
5.00 -11.00 -0.25
5.00 -10.00 -0.28
5.00 -9.00 -0.28
5.00 -8.00 -0.25
5.00 -7.00 -0.20
5.00 -6.00 -0.14
5.00 -5.00 -0.06
5.00 -4.00 0.02
5.00 -3.00 0.11
5.00 -2.00 0.18
5.00 -1.00 0.23
5.00 0.00 0.27
5.00 1.00 0.28
5.00 2.00 0.27
5.00 3.00 0.23
5.00 4.00 0.17
5.00 5.00 0.10
5.00 6.00 0.02
5.00 7.00 -0.07
5.00 8.00 -0.15
5.00 9.00 -0.21
5.00 10.00 -0.26
5.00 11.00 -0.28
5.00 12.00 -0.28
5.00 13.00 -0.25
5.00 14.00 -0.20
5.00 15.00 -0.13
5.00 16.00 -0.05
5.00 17.00 0.03
5.00 18.00 0.11
5.00 19.00 0.18
6.00 -20.00 0.30
6.00 -19.00 0.29
6.00 -18.00 0.25
6.00 -17.00 0.19
6.00 -16.00 0.11
6.00 -15.00 0.02
6.00 -14.00 -0.07
6.00 -13.00 -0.15
6.00 -12.00 -0.22
6.00 -11.00 -0.27
6.00 -10.00 -0.30
6.00 -9.00 -0.30
6.00 -8.00 -0.27
6.00 -7.00 -0.22
6.00 -6.00 -0.15
6.00 -5.00 -0.06
6.00 -4.00 0.03
6.00 -3.00 0.11
6.00 -2.00 0.19
6.00 -1.00 0.25
6.00 0.00 0.29
6.00 1.00 0.30
6.00 2.00 0.28
6.00 3.00 0.24
6.00 4.00 0.18
6.00 5.00 0.10
6.00 6.00 0.02
6.00 7.00 -0.07
6.00 8.00 -0.16
6.00 9.00 -0.22
6.00 10.00 -0.27
6.00 11.00 -0.30
6.00 12.00 -0.29
6.00 13.00 -0.27
6.00 14.00 -0.21
6.00 15.00 -0.14
6.00 16.00 -0.06
6.00 17.00 0.03
6.00 18.00 0.12
6.00 19.00 0.19
7.00 -20.00 0.29
7.00 -19.00 0.28
7.00 -18.00 0.24
7.00 -17.00 0.18
7.00 -16.00 0.11
7.00 -15.00 0.02
7.00 -14.00 -0.07
7.00 -13.00 -0.15
7.00 -12.00 -0.21
7.00 -11.00 -0.26
7.00 -10.00 -0.29
7.00 -9.00 -0.29
7.00 -8.00 -0.26
7.00 -7.00 -0.21
7.00 -6.00 -0.14
7.00 -5.00 -0.06
7.00 -4.00 0.03
7.00 -3.00 0.11
7.00 -2.00 0.18
7.00 -1.00 0.24
7.00 0.00 0.28
7.00 1.00 0.29
7.00 2.00 0.28
7.00 3.00 0.24
7.00 4.00 0.18
7.00 5.00 0.10
7.00 6.00 0.02
7.00 7.00 -0.07
7.00 8.00 -0.15
7.00 9.00 -0.22
7.00 10.00 -0.27
7.00 11.00 -0.29
7.00 12.00 -0.29
7.00 13.00 -0.26
7.00 14.00 -0.21
7.00 15.00 -0.14
7.00 16.00 -0.06
7.00 17.00 0.03
7.00 18.00 0.11
7.00 19.00 0.19
8.00 -20.00 0.26
8.00 -19.00 0.24
8.00 -18.00 0.21
8.00 -17.00 0.16
8.00 -16.00 0.09
8.00 -15.00 0.02
8.00 -14.00 -0.06
8.00 -13.00 -0.13
8.00 -12.00 -0.19
8.00 -11.00 -0.23
8.00 -10.00 -0.25
8.00 -9.00 -0.25
8.00 -8.00 -0.23
8.00 -7.00 -0.19
8.00 -6.00 -0.13
8.00 -5.00 -0.05
8.00 -4.00 0.02
8.00 -3.00 0.10
8.00 -2.00 0.16
8.00 -1.00 0.21
8.00 0.00 0.25
8.00 1.00 0.26
8.00 2.00 0.24
8.00 3.00 0.21
8.00 4.00 0.16
8.00 5.00 0.09
8.00 6.00 0.01
8.00 7.00 -0.06
8.00 8.00 -0.13
8.00 9.00 -0.19
8.00 10.00 -0.23
8.00 11.00 -0.25
8.00 12.00 -0.25
8.00 13.00 -0.23
8.00 14.00 -0.18
8.00 15.00 -0.12
8.00 16.00 -0.05
8.00 17.00 0.03
8.00 18.00 0.10
8.00 19.00 0.17
9.00 -20.00 0.20
9.00 -19.00 0.19
9.00 -18.00 0.16
9.00 -17.00 0.12
9.00 -16.00 0.07
9.00 -15.00 0.01
9.00 -14.00 -0.05
9.00 -13.00 -0.10
9.00 -12.00 -0.15
9.00 -11.00 -0.18
9.00 -10.00 -0.20
9.00 -9.00 -0.20
9.00 -8.00 -0.18
9.00 -7.00 -0.14
9.00 -6.00 -0.10
9.00 -5.00 -0.04
9.00 -4.00 0.02
9.00 -3.00 0.08
9.00 -2.00 0.13
9.00 -1.00 0.17
9.00 0.00 0.19
9.00 1.00 0.20
9.00 2.00 0.19
9.00 3.00 0.16
9.00 4.00 0.12
9.00 5.00 0.07
9.00 6.00 0.01
9.00 7.00 -0.05
9.00 8.00 -0.10
9.00 9.00 -0.15
9.00 10.00 -0.18
9.00 11.00 -0.20
9.00 12.00 -0.20
9.00 13.00 -0.18
9.00 14.00 -0.14
9.00 15.00 -0.09
9.00 16.00 -0.04
9.00 17.00 0.02
9.00 18.00 0.08
9.00 19.00 0.13
10.00 -20.00 0.12
10.00 -19.00 0.12
10.00 -18.00 0.10
10.00 -17.00 0.08
10.00 -16.00 0.04
10.00 -15.00 0.01
10.00 -14.00 -0.03
10.00 -13.00 -0.06
10.00 -12.00 -0.09
10.00 -11.00 -0.11
10.00 -10.00 -0.12
10.00 -9.00 -0.12
10.00 -8.00 -0.11
10.00 -7.00 -0.09
10.00 -6.00 -0.06
10.00 -5.00 -0.03
10.00 -4.00 0.01
10.00 -3.00 0.05
10.00 -2.00 0.08
10.00 -1.00 0.10
10.00 0.00 0.12
10.00 1.00 0.12
10.00 2.00 0.12
10.00 3.00 0.10
10.00 4.00 0.08
10.00 5.00 0.04
10.00 6.00 0.01
10.00 7.00 -0.03
10.00 8.00 -0.06
10.00 9.00 -0.09
10.00 10.00 -0.11
10.00 11.00 -0.12
10.00 12.00 -0.12
10.00 13.00 -0.11
10.00 14.00 -0.09
10.00 15.00 -0.06
10.00 16.00 -0.02
10.00 17.00 0.01
10.00 18.00 0.05
10.00 19.00 0.08
11.00 -20.00 0.04
11.00 -19.00 0.04
11.00 -18.00 0.03
11.00 -17.00 0.02
11.00 -16.00 0.01
11.00 -15.00 0.00
11.00 -14.00 -0.01
11.00 -13.00 -0.02
11.00 -12.00 -0.03
11.00 -11.00 -0.03
11.00 -10.00 -0.04
11.00 -9.00 -0.04
11.00 -8.00 -0.03
11.00 -7.00 -0.03
11.00 -6.00 -0.02
11.00 -5.00 -0.01
11.00 -4.00 0.00
11.00 -3.00 0.01
11.00 -2.00 0.02
11.00 -1.00 0.03
11.00 0.00 0.04
11.00 1.00 0.04
11.00 2.00 0.04
11.00 3.00 0.03
11.00 4.00 0.02
11.00 5.00 0.01
11.00 6.00 0.00
11.00 7.00 -0.01
11.00 8.00 -0.02
11.00 9.00 -0.03
11.00 10.00 -0.03
11.00 11.00 -0.04
11.00 12.00 -0.04
11.00 13.00 -0.03
11.00 14.00 -0.03
11.00 15.00 -0.02
11.00 16.00 -0.01
11.00 17.00 0.00
11.00 18.00 0.01
11.00 19.00 0.02
12.00 -20.00 -0.05
12.00 -19.00 -0.05
12.00 -18.00 -0.04
12.00 -17.00 -0.03
12.00 -16.00 -0.02
12.00 -15.00 -0.00
12.00 -14.00 0.01
12.00 -13.00 0.03
12.00 -12.00 0.04
12.00 -11.00 0.05
12.00 -10.00 0.05
12.00 -9.00 0.05
12.00 -8.00 0.05
12.00 -7.00 0.04
12.00 -6.00 0.03
12.00 -5.00 0.01
12.00 -4.00 -0.00
12.00 -3.00 -0.02
12.00 -2.00 -0.03
12.00 -1.00 -0.04
12.00 0.00 -0.05
12.00 1.00 -0.05
12.00 2.00 -0.05
12.00 3.00 -0.04
12.00 4.00 -0.03
12.00 5.00 -0.02
12.00 6.00 -0.00
12.00 7.00 0.01
12.00 8.00 0.03
12.00 9.00 0.04
12.00 10.00 0.05
12.00 11.00 0.05
12.00 12.00 0.05
12.00 13.00 0.05
12.00 14.00 0.04
12.00 15.00 0.02
12.00 16.00 0.01
12.00 17.00 -0.01
12.00 18.00 -0.02
12.00 19.00 -0.03
13.00 -20.00 -0.14
13.00 -19.00 -0.13
13.00 -18.00 -0.11
13.00 -17.00 -0.09
13.00 -16.00 -0.05
13.00 -15.00 -0.01
13.00 -14.00 0.03
13.00 -13.00 0.07
13.00 -12.00 0.10
13.00 -11.00 0.12
13.00 -10.00 0.14
13.00 -9.00 0.14
13.00 -8.00 0.12
13.00 -7.00 0.10
13.00 -6.00 0.07
13.00 -5.00 0.03
13.00 -4.00 -0.01
13.00 -3.00 -0.05
13.00 -2.00 -0.09
13.00 -1.00 -0.11
13.00 0.00 -0.13
13.00 1.00 -0.14
13.00 2.00 -0.13
13.00 3.00 -0.11
13.00 4.00 -0.08
13.00 5.00 -0.05
13.00 6.00 -0.01
13.00 7.00 0.03
13.00 8.00 0.07
13.00 9.00 0.10
13.00 10.00 0.13
13.00 11.00 0.14
13.00 12.00 0.14
13.00 13.00 0.12
13.00 14.00 0.10
13.00 15.00 0.07
13.00 16.00 0.03
13.00 17.00 -0.01
13.00 18.00 -0.05
13.00 19.00 -0.09
14.00 -20.00 -0.21
14.00 -19.00 -0.20
14.00 -18.00 -0.17
14.00 -17.00 -0.13
14.00 -16.00 -0.08
14.00 -15.00 -0.01
14.00 -14.00 0.05
14.00 -13.00 0.11
14.00 -12.00 0.15
14.00 -11.00 0.19
14.00 -10.00 0.21
14.00 -9.00 0.21
14.00 -8.00 0.19
14.00 -7.00 0.15
14.00 -6.00 0.10
14.00 -5.00 0.04
14.00 -4.00 -0.02
14.00 -3.00 -0.08
14.00 -2.00 -0.13
14.00 -1.00 -0.18
14.00 0.00 -0.20
14.00 1.00 -0.21
14.00 2.00 -0.20
14.00 3.00 -0.17
14.00 4.00 -0.13
14.00 5.00 -0.07
14.00 6.00 -0.01
14.00 7.00 0.05
14.00 8.00 0.11
14.00 9.00 0.16
14.00 10.00 0.19
14.00 11.00 0.21
14.00 12.00 0.21
14.00 13.00 0.19
14.00 14.00 0.15
14.00 15.00 0.10
14.00 16.00 0.04
14.00 17.00 -0.02
14.00 18.00 -0.08
14.00 19.00 -0.14
15.00 -20.00 -0.26
15.00 -19.00 -0.25
15.00 -18.00 -0.22
15.00 -17.00 -0.16
15.00 -16.00 -0.10
15.00 -15.00 -0.02
15.00 -14.00 0.06
15.00 -13.00 0.13
15.00 -12.00 0.19
15.00 -11.00 0.24
15.00 -10.00 0.26
15.00 -9.00 0.26
15.00 -8.00 0.24
15.00 -7.00 0.19
15.00 -6.00 0.13
15.00 -5.00 0.06
15.00 -4.00 -0.02
15.00 -3.00 -0.10
15.00 -2.00 -0.17
15.00 -1.00 -0.22
15.00 0.00 -0.25
15.00 1.00 -0.26
15.00 2.00 -0.25
15.00 3.00 -0.22
15.00 4.00 -0.16
15.00 5.00 -0.09
15.00 6.00 -0.01
15.00 7.00 0.06
15.00 8.00 0.14
15.00 9.00 0.20
15.00 10.00 0.24
15.00 11.00 0.26
15.00 12.00 0.26
15.00 13.00 0.23
15.00 14.00 0.19
15.00 15.00 0.13
15.00 16.00 0.05
15.00 17.00 -0.03
15.00 18.00 -0.10
15.00 19.00 -0.17
16.00 -20.00 -0.29
16.00 -19.00 -0.28
16.00 -18.00 -0.24
16.00 -17.00 -0.18
16.00 -16.00 -0.11
16.00 -15.00 -0.02
16.00 -14.00 0.07
16.00 -13.00 0.15
16.00 -12.00 0.22
16.00 -11.00 0.27
16.00 -10.00 0.29
16.00 -9.00 0.29
16.00 -8.00 0.26
16.00 -7.00 0.21
16.00 -6.00 0.14
16.00 -5.00 0.06
16.00 -4.00 -0.03
16.00 -3.00 -0.11
16.00 -2.00 -0.19
16.00 -1.00 -0.25
16.00 0.00 -0.28
16.00 1.00 -0.29
16.00 2.00 -0.28
16.00 3.00 -0.24
16.00 4.00 -0.18
16.00 5.00 -0.10
16.00 6.00 -0.02
16.00 7.00 0.07
16.00 8.00 0.15
16.00 9.00 0.22
16.00 10.00 0.27
16.00 11.00 0.29
16.00 12.00 0.29
16.00 13.00 0.26
16.00 14.00 0.21
16.00 15.00 0.14
16.00 16.00 0.06
16.00 17.00 -0.03
16.00 18.00 -0.12
16.00 19.00 -0.19
17.00 -20.00 -0.30
17.00 -19.00 -0.29
17.00 -18.00 -0.25
17.00 -17.00 -0.19
17.00 -16.00 -0.11
17.00 -15.00 -0.02
17.00 -14.00 0.07
17.00 -13.00 0.15
17.00 -12.00 0.22
17.00 -11.00 0.27
17.00 -10.00 0.30
17.00 -9.00 0.29
17.00 -8.00 0.27
17.00 -7.00 0.22
17.00 -6.00 0.15
17.00 -5.00 0.06
17.00 -4.00 -0.03
17.00 -3.00 -0.11
17.00 -2.00 -0.19
17.00 -1.00 -0.25
17.00 0.00 -0.29
17.00 1.00 -0.30
17.00 2.00 -0.28
17.00 3.00 -0.24
17.00 4.00 -0.18
17.00 5.00 -0.10
17.00 6.00 -0.02
17.00 7.00 0.07
17.00 8.00 0.15
17.00 9.00 0.22
17.00 10.00 0.27
17.00 11.00 0.30
17.00 12.00 0.29
17.00 13.00 0.27
17.00 14.00 0.21
17.00 15.00 0.14
17.00 16.00 0.06
17.00 17.00 -0.03
17.00 18.00 -0.12
17.00 19.00 -0.19
18.00 -20.00 -0.28
18.00 -19.00 -0.26
18.00 -18.00 -0.23
18.00 -17.00 -0.17
18.00 -16.00 -0.10
18.00 -15.00 -0.02
18.00 -14.00 0.06
18.00 -13.00 0.14
18.00 -12.00 0.20
18.00 -11.00 0.25
18.00 -10.00 0.27
18.00 -9.00 0.27
18.00 -8.00 0.25
18.00 -7.00 0.20
18.00 -6.00 0.14
18.00 -5.00 0.06
18.00 -4.00 -0.02
18.00 -3.00 -0.10
18.00 -2.00 -0.18
18.00 -1.00 -0.23
18.00 0.00 -0.26
18.00 1.00 -0.28
18.00 2.00 -0.26
18.00 3.00 -0.22
18.00 4.00 -0.17
18.00 5.00 -0.10
18.00 6.00 -0.01
18.00 7.00 0.07
18.00 8.00 0.14
18.00 9.00 0.21
18.00 10.00 0.25
18.00 11.00 0.27
18.00 12.00 0.27
18.00 13.00 0.25
18.00 14.00 0.20
18.00 15.00 0.13
18.00 16.00 0.05
18.00 17.00 -0.03
18.00 18.00 -0.11
18.00 19.00 -0.18
19.00 -20.00 -0.23
19.00 -19.00 -0.22
19.00 -18.00 -0.19
19.00 -17.00 -0.14
19.00 -16.00 -0.08
19.00 -15.00 -0.02
19.00 -14.00 0.05
19.00 -13.00 0.12
19.00 -12.00 0.17
19.00 -11.00 0.21
19.00 -10.00 0.23
19.00 -9.00 0.23
19.00 -8.00 0.20
19.00 -7.00 0.17
19.00 -6.00 0.11
19.00 -5.00 0.05
19.00 -4.00 -0.02
19.00 -3.00 -0.09
19.00 -2.00 -0.15
19.00 -1.00 -0.19
19.00 0.00 -0.22
19.00 1.00 -0.23
19.00 2.00 -0.22
19.00 3.00 -0.19
19.00 4.00 -0.14
19.00 5.00 -0.08
19.00 6.00 -0.01
19.00 7.00 0.06
19.00 8.00 0.12
19.00 9.00 0.17
19.00 10.00 0.21
19.00 11.00 0.23
19.00 12.00 0.23
19.00 13.00 0.20
19.00 14.00 0.16
19.00 15.00 0.11
19.00 16.00 0.04
19.00 17.00 -0.02
19.00 18.00 -0.09
19.00 19.00 -0.15
3.00 3.00 0.00
3.00 3.00 0.50
3.00 3.00 1.00
3.00 3.00 1.50
3.00 3.00 2.00
3.00 3.00 2.50
3.00 3.00 3.00
3.00 3.00 3.50
3.00 3.00 4.00
3.00 3.00 4.50
3.00 3.00 5.00
3.00 3.00 5.50
3.00 3.00 6.00
3.00 3.00 6.50
3.00 3.00 7.00
3.00 3.00 7.50
3.00 3.50 0.00
3.00 3.50 0.50
3.00 3.50 1.00
3.00 3.50 1.50
3.00 3.50 2.00
3.00 3.50 2.50
3.00 3.50 3.00
3.00 3.50 3.50
3.00 3.50 4.00
3.00 3.50 4.50
3.00 3.50 5.00
3.00 3.50 5.50
3.00 3.50 6.00
3.00 3.50 6.50
3.00 3.50 7.00
3.00 3.50 7.50
3.00 4.00 0.00
3.00 4.00 0.50
3.00 4.00 1.00
3.00 4.00 1.50
3.00 4.00 2.00
3.00 4.00 2.50
3.00 4.00 3.00
3.00 4.00 3.50
3.00 4.00 4.00
3.00 4.00 4.50
3.00 4.00 5.00
3.00 4.00 5.50
3.00 4.00 6.00
3.00 4.00 6.50
3.00 4.00 7.00
3.00 4.00 7.50
3.00 4.50 0.00
3.00 4.50 0.50
3.00 4.50 1.00
3.00 4.50 1.50
3.00 4.50 2.00
3.00 4.50 2.50
3.00 4.50 3.00
3.00 4.50 3.50
3.00 4.50 4.00
3.00 4.50 4.50
3.00 4.50 5.00
3.00 4.50 5.50
3.00 4.50 6.00
3.00 4.50 6.50
3.00 4.50 7.00
3.00 4.50 7.50
3.00 5.00 0.00
3.00 5.00 0.50
3.00 5.00 1.00
3.00 5.00 1.50
3.00 5.00 2.00
3.00 5.00 2.50
3.00 5.00 3.00
3.00 5.00 3.50
3.00 5.00 4.00
3.00 5.00 4.50
3.00 5.00 5.00
3.00 5.00 5.50
3.00 5.00 6.00
3.00 5.00 6.50
3.00 5.00 7.00
3.00 5.00 7.50
3.00 5.50 0.00
3.00 5.50 0.50
3.00 5.50 1.00
3.00 5.50 1.50
3.00 5.50 2.00
3.00 5.50 2.50
3.00 5.50 3.00
3.00 5.50 3.50
3.00 5.50 4.00
3.00 5.50 4.50
3.00 5.50 5.00
3.00 5.50 5.50
3.00 5.50 6.00
3.00 5.50 6.50
3.00 5.50 7.00
3.00 5.50 7.50
3.00 6.00 0.00
3.00 6.00 0.50
3.00 6.00 1.00
3.00 6.00 1.50
3.00 6.00 2.00
3.00 6.00 2.50
3.00 6.00 3.00
3.00 6.00 3.50
3.00 6.00 4.00
3.00 6.00 4.50
3.00 6.00 5.00
3.00 6.00 5.50
3.00 6.00 6.00
3.00 6.00 6.50
3.00 6.00 7.00
3.00 6.00 7.50
3.00 6.50 0.00
3.00 6.50 0.50
3.00 6.50 1.00
3.00 6.50 1.50
3.00 6.50 2.00
3.00 6.50 2.50
3.00 6.50 3.00
3.00 6.50 3.50
3.00 6.50 4.00
3.00 6.50 4.50
3.00 6.50 5.00
3.00 6.50 5.50
3.00 6.50 6.00
3.00 6.50 6.50
3.00 6.50 7.00
3.00 6.50 7.50
3.50 3.00 0.00
3.50 3.00 0.50
3.50 3.00 1.00
3.50 3.00 1.50
3.50 3.00 2.00
3.50 3.00 2.50
3.50 3.00 3.00
3.50 3.00 3.50
3.50 3.00 4.00
3.50 3.00 4.50
3.50 3.00 5.00
3.50 3.00 5.50
3.50 3.00 6.00
3.50 3.00 6.50
3.50 3.00 7.00
3.50 3.00 7.50
3.50 3.50 0.00
3.50 3.50 0.50
3.50 3.50 1.00
3.50 3.50 1.50
3.50 3.50 2.00
3.50 3.50 2.50
3.50 3.50 3.00
3.50 3.50 3.50
3.50 3.50 4.00
3.50 3.50 4.50
3.50 3.50 5.00
3.50 3.50 5.50
3.50 3.50 6.00
3.50 3.50 6.50
3.50 3.50 7.00
3.50 3.50 7.50
3.50 4.00 0.00
3.50 4.00 0.50
3.50 4.00 1.00
3.50 4.00 1.50
3.50 4.00 2.00
3.50 4.00 2.50
3.50 4.00 3.00
3.50 4.00 3.50
3.50 4.00 4.00
3.50 4.00 4.50
3.50 4.00 5.00
3.50 4.00 5.50
3.50 4.00 6.00
3.50 4.00 6.50
3.50 4.00 7.00
3.50 4.00 7.50
3.50 4.50 0.00
3.50 4.50 0.50
3.50 4.50 1.00
3.50 4.50 1.50
3.50 4.50 2.00
3.50 4.50 2.50
3.50 4.50 3.00
3.50 4.50 3.50
3.50 4.50 4.00
3.50 4.50 4.50
3.50 4.50 5.00
3.50 4.50 5.50
3.50 4.50 6.00
3.50 4.50 6.50
3.50 4.50 7.00
3.50 4.50 7.50
3.50 5.00 0.00
3.50 5.00 0.50
3.50 5.00 1.00
3.50 5.00 1.50
3.50 5.00 2.00
3.50 5.00 2.50
3.50 5.00 3.00
3.50 5.00 3.50
3.50 5.00 4.00
3.50 5.00 4.50
3.50 5.00 5.00
3.50 5.00 5.50
3.50 5.00 6.00
3.50 5.00 6.50
3.50 5.00 7.00
3.50 5.00 7.50
3.50 5.50 0.00
3.50 5.50 0.50
3.50 5.50 1.00
3.50 5.50 1.50
3.50 5.50 2.00
3.50 5.50 2.50
3.50 5.50 3.00
3.50 5.50 3.50
3.50 5.50 4.00
3.50 5.50 4.50
3.50 5.50 5.00
3.50 5.50 5.50
3.50 5.50 6.00
3.50 5.50 6.50
3.50 5.50 7.00
3.50 5.50 7.50
3.50 6.00 0.00
3.50 6.00 0.50
3.50 6.00 1.00
3.50 6.00 1.50
3.50 6.00 2.00
3.50 6.00 2.50
3.50 6.00 3.00
3.50 6.00 3.50
3.50 6.00 4.00
3.50 6.00 4.50
3.50 6.00 5.00
3.50 6.00 5.50
3.50 6.00 6.00
3.50 6.00 6.50
3.50 6.00 7.00
3.50 6.00 7.50
3.50 6.50 0.00
3.50 6.50 0.50
3.50 6.50 1.00
3.50 6.50 1.50
3.50 6.50 2.00
3.50 6.50 2.50
3.50 6.50 3.00
3.50 6.50 3.50
3.50 6.50 4.00
3.50 6.50 4.50
3.50 6.50 5.00
3.50 6.50 5.50
3.50 6.50 6.00
3.50 6.50 6.50
3.50 6.50 7.00
3.50 6.50 7.50
4.00 3.00 0.00
4.00 3.00 0.50
4.00 3.00 1.00
4.00 3.00 1.50
4.00 3.00 2.00
4.00 3.00 2.50
4.00 3.00 3.00
4.00 3.00 3.50
4.00 3.00 4.00
4.00 3.00 4.50
4.00 3.00 5.00
4.00 3.00 5.50
4.00 3.00 6.00
4.00 3.00 6.50
4.00 3.00 7.00
4.00 3.00 7.50
4.00 3.50 0.00
4.00 3.50 0.50
4.00 3.50 1.00
4.00 3.50 1.50
4.00 3.50 2.00
4.00 3.50 2.50
4.00 3.50 3.00
4.00 3.50 3.50
4.00 3.50 4.00
4.00 3.50 4.50
4.00 3.50 5.00
4.00 3.50 5.50
4.00 3.50 6.00
4.00 3.50 6.50
4.00 3.50 7.00
4.00 3.50 7.50
4.00 4.00 0.00
4.00 4.00 0.50
4.00 4.00 1.00
4.00 4.00 1.50
4.00 4.00 2.00
4.00 4.00 2.50
4.00 4.00 3.00
4.00 4.00 3.50
4.00 4.00 4.00
4.00 4.00 4.50
4.00 4.00 5.00
4.00 4.00 5.50
4.00 4.00 6.00
4.00 4.00 6.50
4.00 4.00 7.00
4.00 4.00 7.50
4.00 4.50 0.00
4.00 4.50 0.50
4.00 4.50 1.00
4.00 4.50 1.50
4.00 4.50 2.00
4.00 4.50 2.50
4.00 4.50 3.00
4.00 4.50 3.50
4.00 4.50 4.00
4.00 4.50 4.50
4.00 4.50 5.00
4.00 4.50 5.50
4.00 4.50 6.00
4.00 4.50 6.50
4.00 4.50 7.00
4.00 4.50 7.50
4.00 5.00 0.00
4.00 5.00 0.50
4.00 5.00 1.00
4.00 5.00 1.50
4.00 5.00 2.00
4.00 5.00 2.50
4.00 5.00 3.00
4.00 5.00 3.50
4.00 5.00 4.00
4.00 5.00 4.50
4.00 5.00 5.00
4.00 5.00 5.50
4.00 5.00 6.00
4.00 5.00 6.50
4.00 5.00 7.00
4.00 5.00 7.50
4.00 5.50 0.00
4.00 5.50 0.50
4.00 5.50 1.00
4.00 5.50 1.50
4.00 5.50 2.00
4.00 5.50 2.50
4.00 5.50 3.00
4.00 5.50 3.50
4.00 5.50 4.00
4.00 5.50 4.50
4.00 5.50 5.00
4.00 5.50 5.50
4.00 5.50 6.00
4.00 5.50 6.50
4.00 5.50 7.00
4.00 5.50 7.50
4.00 6.00 0.00
4.00 6.00 0.50
4.00 6.00 1.00
4.00 6.00 1.50
4.00 6.00 2.00
4.00 6.00 2.50
4.00 6.00 3.00
4.00 6.00 3.50
4.00 6.00 4.00
4.00 6.00 4.50
4.00 6.00 5.00
4.00 6.00 5.50
4.00 6.00 6.00
4.00 6.00 6.50
4.00 6.00 7.00
4.00 6.00 7.50
4.00 6.50 0.00
4.00 6.50 0.50
4.00 6.50 1.00
4.00 6.50 1.50
4.00 6.50 2.00
4.00 6.50 2.50
4.00 6.50 3.00
4.00 6.50 3.50
4.00 6.50 4.00
4.00 6.50 4.50
4.00 6.50 5.00
4.00 6.50 5.50
4.00 6.50 6.00
4.00 6.50 6.50
4.00 6.50 7.00
4.00 6.50 7.50
4.50 3.00 0.00
4.50 3.00 0.50
4.50 3.00 1.00
4.50 3.00 1.50
4.50 3.00 2.00
4.50 3.00 2.50
4.50 3.00 3.00
4.50 3.00 3.50
4.50 3.00 4.00
4.50 3.00 4.50
4.50 3.00 5.00
4.50 3.00 5.50
4.50 3.00 6.00
4.50 3.00 6.50
4.50 3.00 7.00
4.50 3.00 7.50
4.50 3.50 0.00
4.50 3.50 0.50
4.50 3.50 1.00
4.50 3.50 1.50
4.50 3.50 2.00
4.50 3.50 2.50
4.50 3.50 3.00
4.50 3.50 3.50
4.50 3.50 4.00
4.50 3.50 4.50
4.50 3.50 5.00
4.50 3.50 5.50
4.50 3.50 6.00
4.50 3.50 6.50
4.50 3.50 7.00
4.50 3.50 7.50
4.50 4.00 0.00
4.50 4.00 0.50
4.50 4.00 1.00
4.50 4.00 1.50
4.50 4.00 2.00
4.50 4.00 2.50
4.50 4.00 3.00
4.50 4.00 3.50
4.50 4.00 4.00
4.50 4.00 4.50
4.50 4.00 5.00
4.50 4.00 5.50
4.50 4.00 6.00
4.50 4.00 6.50
4.50 4.00 7.00
4.50 4.00 7.50
4.50 4.50 0.00
4.50 4.50 0.50
4.50 4.50 1.00
4.50 4.50 1.50
4.50 4.50 2.00
4.50 4.50 2.50
4.50 4.50 3.00
4.50 4.50 3.50
4.50 4.50 4.00
4.50 4.50 4.50
4.50 4.50 5.00
4.50 4.50 5.50
4.50 4.50 6.00
4.50 4.50 6.50
4.50 4.50 7.00
4.50 4.50 7.50
4.50 5.00 0.00
4.50 5.00 0.50
4.50 5.00 1.00
4.50 5.00 1.50
4.50 5.00 2.00
4.50 5.00 2.50
4.50 5.00 3.00
4.50 5.00 3.50
4.50 5.00 4.00
4.50 5.00 4.50
4.50 5.00 5.00
4.50 5.00 5.50
4.50 5.00 6.00
4.50 5.00 6.50
4.50 5.00 7.00
4.50 5.00 7.50
4.50 5.50 0.00
4.50 5.50 0.50
4.50 5.50 1.00
4.50 5.50 1.50
4.50 5.50 2.00
4.50 5.50 2.50
4.50 5.50 3.00
4.50 5.50 3.50
4.50 5.50 4.00
4.50 5.50 4.50
4.50 5.50 5.00
4.50 5.50 5.50
4.50 5.50 6.00
4.50 5.50 6.50
4.50 5.50 7.00
4.50 5.50 7.50
4.50 6.00 0.00
4.50 6.00 0.50
4.50 6.00 1.00
4.50 6.00 1.50
4.50 6.00 2.00
4.50 6.00 2.50
4.50 6.00 3.00
4.50 6.00 3.50
4.50 6.00 4.00
4.50 6.00 4.50
4.50 6.00 5.00
4.50 6.00 5.50
4.50 6.00 6.00
4.50 6.00 6.50
4.50 6.00 7.00
4.50 6.00 7.50
4.50 6.50 0.00
4.50 6.50 0.50
4.50 6.50 1.00
4.50 6.50 1.50
4.50 6.50 2.00
4.50 6.50 2.50
4.50 6.50 3.00
4.50 6.50 3.50
4.50 6.50 4.00
4.50 6.50 4.50
4.50 6.50 5.00
4.50 6.50 5.50
4.50 6.50 6.00
4.50 6.50 6.50
4.50 6.50 7.00
4.50 6.50 7.50
5.00 3.00 0.00
5.00 3.00 0.50
5.00 3.00 1.00
5.00 3.00 1.50
5.00 3.00 2.00
5.00 3.00 2.50
5.00 3.00 3.00
5.00 3.00 3.50
5.00 3.00 4.00
5.00 3.00 4.50
5.00 3.00 5.00
5.00 3.00 5.50
5.00 3.00 6.00
5.00 3.00 6.50
5.00 3.00 7.00
5.00 3.00 7.50
5.00 3.50 0.00
5.00 3.50 0.50
5.00 3.50 1.00
5.00 3.50 1.50
5.00 3.50 2.00
5.00 3.50 2.50
5.00 3.50 3.00
5.00 3.50 3.50
5.00 3.50 4.00
5.00 3.50 4.50
5.00 3.50 5.00
5.00 3.50 5.50
5.00 3.50 6.00
5.00 3.50 6.50
5.00 3.50 7.00
5.00 3.50 7.50
5.00 4.00 0.00
5.00 4.00 0.50
5.00 4.00 1.00
5.00 4.00 1.50
5.00 4.00 2.00
5.00 4.00 2.50
5.00 4.00 3.00
5.00 4.00 3.50
5.00 4.00 4.00
5.00 4.00 4.50
5.00 4.00 5.00
5.00 4.00 5.50
5.00 4.00 6.00
5.00 4.00 6.50
5.00 4.00 7.00
5.00 4.00 7.50
5.00 4.50 0.00
5.00 4.50 0.50
5.00 4.50 1.00
5.00 4.50 1.50
5.00 4.50 2.00
5.00 4.50 2.50
5.00 4.50 3.00
5.00 4.50 3.50
5.00 4.50 4.00
5.00 4.50 4.50
5.00 4.50 5.00
5.00 4.50 5.50
5.00 4.50 6.00
5.00 4.50 6.50
5.00 4.50 7.00
5.00 4.50 7.50
5.00 5.00 0.00
5.00 5.00 0.50
5.00 5.00 1.00
5.00 5.00 1.50
5.00 5.00 2.00
5.00 5.00 2.50
5.00 5.00 3.00
5.00 5.00 3.50
5.00 5.00 4.00
5.00 5.00 4.50
5.00 5.00 5.00
5.00 5.00 5.50
5.00 5.00 6.00
5.00 5.00 6.50
5.00 5.00 7.00
5.00 5.00 7.50
5.00 5.50 0.00
5.00 5.50 0.50
5.00 5.50 1.00
5.00 5.50 1.50
5.00 5.50 2.00
5.00 5.50 2.50
5.00 5.50 3.00
5.00 5.50 3.50
5.00 5.50 4.00
5.00 5.50 4.50
5.00 5.50 5.00
5.00 5.50 5.50
5.00 5.50 6.00
5.00 5.50 6.50
5.00 5.50 7.00
5.00 5.50 7.50
5.00 6.00 0.00
5.00 6.00 0.50
5.00 6.00 1.00
5.00 6.00 1.50
5.00 6.00 2.00
5.00 6.00 2.50
5.00 6.00 3.00
5.00 6.00 3.50
5.00 6.00 4.00
5.00 6.00 4.50
5.00 6.00 5.00
5.00 6.00 5.50
5.00 6.00 6.00
5.00 6.00 6.50
5.00 6.00 7.00
5.00 6.00 7.50
5.00 6.50 0.00
5.00 6.50 0.50
5.00 6.50 1.00
5.00 6.50 1.50
5.00 6.50 2.00
5.00 6.50 2.50
5.00 6.50 3.00
5.00 6.50 3.50
5.00 6.50 4.00
5.00 6.50 4.50
5.00 6.50 5.00
5.00 6.50 5.50
5.00 6.50 6.00
5.00 6.50 6.50
5.00 6.50 7.00
5.00 6.50 7.50
5.50 3.00 0.00
5.50 3.00 0.50
5.50 3.00 1.00
5.50 3.00 1.50
5.50 3.00 2.00
5.50 3.00 2.50
5.50 3.00 3.00
5.50 3.00 3.50
5.50 3.00 4.00
5.50 3.00 4.50
5.50 3.00 5.00
5.50 3.00 5.50
5.50 3.00 6.00
5.50 3.00 6.50
5.50 3.00 7.00
5.50 3.00 7.50
5.50 3.50 0.00
5.50 3.50 0.50
5.50 3.50 1.00
5.50 3.50 1.50
5.50 3.50 2.00
5.50 3.50 2.50
5.50 3.50 3.00
5.50 3.50 3.50
5.50 3.50 4.00
5.50 3.50 4.50
5.50 3.50 5.00
5.50 3.50 5.50
5.50 3.50 6.00
5.50 3.50 6.50
5.50 3.50 7.00
5.50 3.50 7.50
5.50 4.00 0.00
5.50 4.00 0.50
5.50 4.00 1.00
5.50 4.00 1.50
5.50 4.00 2.00
5.50 4.00 2.50
5.50 4.00 3.00
5.50 4.00 3.50
5.50 4.00 4.00
5.50 4.00 4.50
5.50 4.00 5.00
5.50 4.00 5.50
5.50 4.00 6.00
5.50 4.00 6.50
5.50 4.00 7.00
5.50 4.00 7.50
5.50 4.50 0.00
5.50 4.50 0.50
5.50 4.50 1.00
5.50 4.50 1.50
5.50 4.50 2.00
5.50 4.50 2.50
5.50 4.50 3.00
5.50 4.50 3.50
5.50 4.50 4.00
5.50 4.50 4.50
5.50 4.50 5.00
5.50 4.50 5.50
5.50 4.50 6.00
5.50 4.50 6.50
5.50 4.50 7.00
5.50 4.50 7.50
5.50 5.00 0.00
5.50 5.00 0.50
5.50 5.00 1.00
5.50 5.00 1.50
5.50 5.00 2.00
5.50 5.00 2.50
5.50 5.00 3.00
5.50 5.00 3.50
5.50 5.00 4.00
5.50 5.00 4.50
5.50 5.00 5.00
5.50 5.00 5.50
5.50 5.00 6.00
5.50 5.00 6.50
5.50 5.00 7.00
5.50 5.00 7.50
5.50 5.50 0.00
5.50 5.50 0.50
5.50 5.50 1.00
5.50 5.50 1.50
5.50 5.50 2.00
5.50 5.50 2.50
5.50 5.50 3.00
5.50 5.50 3.50
5.50 5.50 4.00
5.50 5.50 4.50
5.50 5.50 5.00
5.50 5.50 5.50
5.50 5.50 6.00
5.50 5.50 6.50
5.50 5.50 7.00
5.50 5.50 7.50
5.50 6.00 0.00
5.50 6.00 0.50
5.50 6.00 1.00
5.50 6.00 1.50
5.50 6.00 2.00
5.50 6.00 2.50
5.50 6.00 3.00
5.50 6.00 3.50
5.50 6.00 4.00
5.50 6.00 4.50
5.50 6.00 5.00
5.50 6.00 5.50
5.50 6.00 6.00
5.50 6.00 6.50
5.50 6.00 7.00
5.50 6.00 7.50
5.50 6.50 0.00
5.50 6.50 0.50
5.50 6.50 1.00
5.50 6.50 1.50
5.50 6.50 2.00
5.50 6.50 2.50
5.50 6.50 3.00
5.50 6.50 3.50
5.50 6.50 4.00
5.50 6.50 4.50
5.50 6.50 5.00
5.50 6.50 5.50
5.50 6.50 6.00
5.50 6.50 6.50
5.50 6.50 7.00
5.50 6.50 7.50
6.00 3.00 0.00
6.00 3.00 0.50
6.00 3.00 1.00
6.00 3.00 1.50
6.00 3.00 2.00
6.00 3.00 2.50
6.00 3.00 3.00
6.00 3.00 3.50
6.00 3.00 4.00
6.00 3.00 4.50
6.00 3.00 5.00
6.00 3.00 5.50
6.00 3.00 6.00
6.00 3.00 6.50
6.00 3.00 7.00
6.00 3.00 7.50
6.00 3.50 0.00
6.00 3.50 0.50
6.00 3.50 1.00
6.00 3.50 1.50
6.00 3.50 2.00
6.00 3.50 2.50
6.00 3.50 3.00
6.00 3.50 3.50
6.00 3.50 4.00
6.00 3.50 4.50
6.00 3.50 5.00
6.00 3.50 5.50
6.00 3.50 6.00
6.00 3.50 6.50
6.00 3.50 7.00
6.00 3.50 7.50
6.00 4.00 0.00
6.00 4.00 0.50
6.00 4.00 1.00
6.00 4.00 1.50
6.00 4.00 2.00
6.00 4.00 2.50
6.00 4.00 3.00
6.00 4.00 3.50
6.00 4.00 4.00
6.00 4.00 4.50
6.00 4.00 5.00
6.00 4.00 5.50
6.00 4.00 6.00
6.00 4.00 6.50
6.00 4.00 7.00
6.00 4.00 7.50
6.00 4.50 0.00
6.00 4.50 0.50
6.00 4.50 1.00
6.00 4.50 1.50
6.00 4.50 2.00
6.00 4.50 2.50
6.00 4.50 3.00
6.00 4.50 3.50
6.00 4.50 4.00
6.00 4.50 4.50
6.00 4.50 5.00
6.00 4.50 5.50
6.00 4.50 6.00
6.00 4.50 6.50
6.00 4.50 7.00
6.00 4.50 7.50
6.00 5.00 0.00
6.00 5.00 0.50
6.00 5.00 1.00
6.00 5.00 1.50
6.00 5.00 2.00
6.00 5.00 2.50
6.00 5.00 3.00
6.00 5.00 3.50
6.00 5.00 4.00
6.00 5.00 4.50
6.00 5.00 5.00
6.00 5.00 5.50
6.00 5.00 6.00
6.00 5.00 6.50
6.00 5.00 7.00
6.00 5.00 7.50
6.00 5.50 0.00
6.00 5.50 0.50
6.00 5.50 1.00
6.00 5.50 1.50
6.00 5.50 2.00
6.00 5.50 2.50
6.00 5.50 3.00
6.00 5.50 3.50
6.00 5.50 4.00
6.00 5.50 4.50
6.00 5.50 5.00
6.00 5.50 5.50
6.00 5.50 6.00
6.00 5.50 6.50
6.00 5.50 7.00
6.00 5.50 7.50
6.00 6.00 0.00
6.00 6.00 0.50
6.00 6.00 1.00
6.00 6.00 1.50
6.00 6.00 2.00
6.00 6.00 2.50
6.00 6.00 3.00
6.00 6.00 3.50
6.00 6.00 4.00
6.00 6.00 4.50
6.00 6.00 5.00
6.00 6.00 5.50
6.00 6.00 6.00
6.00 6.00 6.50
6.00 6.00 7.00
6.00 6.00 7.50
6.00 6.50 0.00
6.00 6.50 0.50
6.00 6.50 1.00
6.00 6.50 1.50
6.00 6.50 2.00
6.00 6.50 2.50
6.00 6.50 3.00
6.00 6.50 3.50
6.00 6.50 4.00
6.00 6.50 4.50
6.00 6.50 5.00
6.00 6.50 5.50
6.00 6.50 6.00
6.00 6.50 6.50
6.00 6.50 7.00
6.00 6.50 7.50
6.50 3.00 0.00
6.50 3.00 0.50
6.50 3.00 1.00
6.50 3.00 1.50
6.50 3.00 2.00
6.50 3.00 2.50
6.50 3.00 3.00
6.50 3.00 3.50
6.50 3.00 4.00
6.50 3.00 4.50
6.50 3.00 5.00
6.50 3.00 5.50
6.50 3.00 6.00
6.50 3.00 6.50
6.50 3.00 7.00
6.50 3.00 7.50
6.50 3.50 0.00
6.50 3.50 0.50
6.50 3.50 1.00
6.50 3.50 1.50
6.50 3.50 2.00
6.50 3.50 2.50
6.50 3.50 3.00
6.50 3.50 3.50
6.50 3.50 4.00
6.50 3.50 4.50
6.50 3.50 5.00
6.50 3.50 5.50
6.50 3.50 6.00
6.50 3.50 6.50
6.50 3.50 7.00
6.50 3.50 7.50
6.50 4.00 0.00
6.50 4.00 0.50
6.50 4.00 1.00
6.50 4.00 1.50
6.50 4.00 2.00
6.50 4.00 2.50
6.50 4.00 3.00
6.50 4.00 3.50
6.50 4.00 4.00
6.50 4.00 4.50
6.50 4.00 5.00
6.50 4.00 5.50
6.50 4.00 6.00
6.50 4.00 6.50
6.50 4.00 7.00
6.50 4.00 7.50
6.50 4.50 0.00
6.50 4.50 0.50
6.50 4.50 1.00
6.50 4.50 1.50
6.50 4.50 2.00
6.50 4.50 2.50
6.50 4.50 3.00
6.50 4.50 3.50
6.50 4.50 4.00
6.50 4.50 4.50
6.50 4.50 5.00
6.50 4.50 5.50
6.50 4.50 6.00
6.50 4.50 6.50
6.50 4.50 7.00
6.50 4.50 7.50
6.50 5.00 0.00
6.50 5.00 0.50
6.50 5.00 1.00
6.50 5.00 1.50
6.50 5.00 2.00
6.50 5.00 2.50
6.50 5.00 3.00
6.50 5.00 3.50
6.50 5.00 4.00
6.50 5.00 4.50
6.50 5.00 5.00
6.50 5.00 5.50
6.50 5.00 6.00
6.50 5.00 6.50
6.50 5.00 7.00
6.50 5.00 7.50
6.50 5.50 0.00
6.50 5.50 0.50
6.50 5.50 1.00
6.50 5.50 1.50
6.50 5.50 2.00
6.50 5.50 2.50
6.50 5.50 3.00
6.50 5.50 3.50
6.50 5.50 4.00
6.50 5.50 4.50
6.50 5.50 5.00
6.50 5.50 5.50
6.50 5.50 6.00
6.50 5.50 6.50
6.50 5.50 7.00
6.50 5.50 7.50
6.50 6.00 0.00
6.50 6.00 0.50
6.50 6.00 1.00
6.50 6.00 1.50
6.50 6.00 2.00
6.50 6.00 2.50
6.50 6.00 3.00
6.50 6.00 3.50
6.50 6.00 4.00
6.50 6.00 4.50
6.50 6.00 5.00
6.50 6.00 5.50
6.50 6.00 6.00
6.50 6.00 6.50
6.50 6.00 7.00
6.50 6.00 7.50
6.50 6.50 0.00
6.50 6.50 0.50
6.50 6.50 1.00
6.50 6.50 1.50
6.50 6.50 2.00
6.50 6.50 2.50
6.50 6.50 3.00
6.50 6.50 3.50
6.50 6.50 4.00
6.50 6.50 4.50
6.50 6.50 5.00
6.50 6.50 5.50
6.50 6.50 6.00
6.50 6.50 6.50
6.50 6.50 7.00
6.50 6.50 7.50
